<?xml version="1.0" encoding="UTF-8"?>
<svg width="199" height="52" viewBox="0 0 199 52" fill="none" xmlns="http://www.w3.org/2000/svg">
<path d="M111.401 13.2433L108.645 23.5825H107.519L105.208 15.0374L103.03 23.5825H101.904L99 13.3193L100.156 13.1368L102.482 21.9404L104.659 13.2433H105.8L108.082 21.9404L110.275 13.2433H111.401ZM119.007 23.5825L118.859 22.6246H114.104V18.7474H117.718L117.585 17.8503H114.104V14.1404H118.563L118.43 13.2433H112.933V23.5825H119.007ZM123.843 23.5825C124.969 23.5825 125.873 23.3493 126.554 22.883C127.236 22.4168 127.576 21.6819 127.576 20.6784C127.576 20.0094 127.404 19.4569 127.058 19.0211C126.722 18.5852 126.248 18.2608 125.636 18.048C126.05 17.8047 126.386 17.5158 126.643 17.1813C126.9 16.8366 127.028 16.4363 127.028 15.9801C127.028 14.9969 126.717 14.2975 126.095 13.8819C125.473 13.4561 124.604 13.2433 123.487 13.2433H120.687V23.5825H123.843ZM123.443 14.262C124.243 14.262 124.841 14.3836 125.236 14.6269C125.641 14.8702 125.843 15.3263 125.843 15.9953C125.843 16.6136 125.601 17.0596 125.117 17.3333C124.643 17.5969 124.011 17.7337 123.221 17.7439H121.858V14.262H123.443ZM123.976 18.717C124.737 18.717 125.329 18.8791 125.754 19.2035C126.179 19.5279 126.391 20.0296 126.391 20.7088C126.391 21.9556 125.537 22.5789 123.828 22.5789H121.858V18.717H123.976ZM136.322 23.5825C137.28 23.5825 138.095 23.3544 138.766 22.8982C139.448 22.4421 139.961 21.8238 140.307 21.0433C140.653 20.2526 140.826 19.3556 140.826 18.352C140.826 16.8316 140.46 15.6 139.729 14.6573C138.998 13.7146 137.892 13.2433 136.411 13.2433H132.885V23.5825H136.322ZM136.47 14.262C137.517 14.262 138.307 14.637 138.84 15.3871C139.384 16.1372 139.655 17.1306 139.655 18.3673C139.655 19.2289 139.517 19.9789 139.24 20.6175C138.964 21.246 138.574 21.7326 138.07 22.0772C137.576 22.4117 136.998 22.5789 136.337 22.5789H134.055V14.262H136.47ZM148.898 23.5825L148.75 22.6246H143.994V18.7474H147.609L147.476 17.8503H143.994V14.1404H148.454L148.321 13.2433H142.824V23.5825H148.898ZM150.001 23.0807C150.268 23.2632 150.688 23.4253 151.261 23.5673C151.833 23.7092 152.337 23.7801 152.772 23.7801C153.503 23.7801 154.135 23.6635 154.668 23.4304C155.211 23.1973 155.621 22.878 155.898 22.4725C156.184 22.0671 156.327 21.6008 156.327 21.0737C156.327 20.5871 156.229 20.1715 156.031 19.8269C155.834 19.4721 155.542 19.1579 155.157 18.8842C154.782 18.6105 154.283 18.3267 153.661 18.0327C152.969 17.7084 152.446 17.4398 152.09 17.2269C151.735 17.014 151.458 16.7809 151.261 16.5275C151.073 16.2639 150.979 15.9497 150.979 15.5848C150.979 15.0982 151.172 14.7181 151.557 14.4444C151.952 14.1708 152.475 14.0339 153.127 14.0339C153.562 14.0339 153.927 14.0795 154.224 14.1708C154.53 14.262 154.866 14.3938 155.231 14.5661L155.631 13.6386C155.285 13.4561 154.885 13.3041 154.431 13.1825C153.987 13.0608 153.527 13 153.053 13C152.411 13 151.843 13.1166 151.349 13.3497C150.866 13.5727 150.49 13.8819 150.224 14.2772C149.967 14.6725 149.838 15.1135 149.838 15.6C149.838 16.2893 150.051 16.8721 150.475 17.3485C150.91 17.825 151.587 18.2659 152.505 18.6713C153.147 18.9552 153.651 19.2086 154.016 19.4316C154.392 19.6444 154.678 19.8877 154.876 20.1614C155.073 20.425 155.172 20.7341 155.172 21.0889C155.172 21.5856 154.959 21.991 154.535 22.3053C154.12 22.6094 153.527 22.7614 152.757 22.7614C152.322 22.7614 151.878 22.7006 151.424 22.5789C150.979 22.4472 150.599 22.3002 150.283 22.138L150.001 23.0807ZM159.345 23.5825V13.2433H158.174V23.5825H159.345ZM168.096 19.1579V22.4421C167.543 22.6448 166.97 22.7462 166.377 22.7462C165.656 22.7462 165.004 22.5739 164.422 22.2292C163.849 21.8745 163.394 21.3727 163.059 20.724C162.733 20.0752 162.57 19.3201 162.57 18.4585C162.57 17.5563 162.752 16.7758 163.118 16.117C163.493 15.448 163.982 14.9411 164.585 14.5965C165.197 14.2417 165.854 14.0643 166.555 14.0643C167.009 14.0643 167.38 14.0998 167.666 14.1708C167.953 14.2316 168.293 14.338 168.688 14.4901L169.059 13.6234C168.772 13.4409 168.367 13.299 167.844 13.1977C167.33 13.0862 166.891 13.0304 166.525 13.0304C165.557 13.0304 164.678 13.2635 163.888 13.7298C163.098 14.186 162.476 14.8296 162.022 15.6608C161.567 16.4819 161.34 17.4195 161.34 18.4737C161.34 19.4772 161.547 20.3844 161.962 21.1953C162.377 21.9961 162.965 22.6296 163.725 23.0959C164.496 23.5622 165.385 23.7953 166.392 23.7953C166.886 23.7953 167.4 23.7244 167.933 23.5825C168.466 23.4507 168.891 23.2834 169.207 23.0807L169.222 18.2608H165.977L165.874 19.1579H168.096ZM172.54 23.5825V15.4632L172.926 16.1474L178.052 23.5825H179V13.2433H177.815V21.2561L177.207 20.2374L172.303 13.2433H171.37V23.5825H172.54ZM102.733 28.448L99 38.7871H100.141L101.193 35.8526H105.445L106.571 38.8936L107.726 38.6959L103.859 28.448H102.733ZM105.104 34.8795H101.519L103.282 30.0292L105.104 34.8795ZM115.273 34.3626V37.6468C114.72 37.8495 114.147 37.9509 113.555 37.9509C112.833 37.9509 112.182 37.7786 111.599 37.4339C111.026 37.0791 110.572 36.5774 110.236 35.9287C109.91 35.2799 109.747 34.5248 109.747 33.6632C109.747 32.761 109.93 31.9805 110.295 31.3216C110.67 30.6526 111.159 30.1458 111.762 29.8012C112.374 29.4464 113.031 29.269 113.732 29.269C114.187 29.269 114.557 29.3045 114.843 29.3754C115.13 29.4363 115.471 29.5427 115.866 29.6947L116.236 28.8281C115.95 28.6456 115.545 28.5037 115.021 28.4023C114.508 28.2908 114.068 28.2351 113.703 28.2351C112.735 28.2351 111.856 28.4682 111.066 28.9345C110.275 29.3906 109.653 30.0343 109.199 30.8655C108.744 31.6866 108.517 32.6242 108.517 33.6784C108.517 34.6819 108.725 35.5891 109.14 36.4C109.554 37.2008 110.142 37.8343 110.903 38.3006C111.673 38.7669 112.562 39 113.569 39C114.063 39 114.577 38.929 115.11 38.7871C115.643 38.6554 116.068 38.4881 116.384 38.2854L116.399 33.4655H113.154L113.051 34.3626H115.273ZM124.621 38.7871L124.473 37.8292H119.717V33.952H123.332L123.199 33.055H119.717V29.345H124.176L124.043 28.448H118.546V38.7871H124.621ZM127.472 38.7871V30.6678L127.857 31.352L132.983 38.7871H133.931V28.448H132.746V36.4608L132.139 35.4421L127.235 28.448H126.302V38.7871H127.472ZM143.194 28.8281C142.907 28.6456 142.507 28.5037 141.994 28.4023C141.48 28.2908 141.04 28.2351 140.675 28.2351C139.727 28.2351 138.892 28.4733 138.171 28.9497C137.45 29.4261 136.897 30.0799 136.512 30.9111C136.127 31.7322 135.934 32.6546 135.934 33.6784C135.934 34.6515 136.112 35.5435 136.467 36.3544C136.823 37.1653 137.351 37.809 138.053 38.2854C138.754 38.7618 139.598 39 140.586 39C141.011 39 141.475 38.9392 141.979 38.8175C142.492 38.706 142.902 38.5692 143.208 38.407L142.764 37.4947C142.458 37.6367 142.127 37.7481 141.771 37.8292C141.426 37.9103 141.016 37.9509 140.542 37.9509C139.85 37.9509 139.248 37.7634 138.734 37.3883C138.221 37.0031 137.83 36.4862 137.564 35.8374C137.297 35.1786 137.164 34.4538 137.164 33.6632C137.164 32.8218 137.317 32.0667 137.623 31.3977C137.929 30.7287 138.349 30.2066 138.882 29.8316C139.426 29.4565 140.023 29.269 140.675 29.269C141.139 29.269 141.515 29.3045 141.801 29.3754C142.087 29.4363 142.428 29.5427 142.823 29.6947L143.194 28.8281ZM148.196 38.7871L148.211 34.5754L151.737 28.448H150.478L147.618 33.4503L144.789 28.2047L143.692 28.6912L147.026 34.6363V38.7871H148.196Z" fill="white"/>
<path d="M12.2143 41L2.5 11H6.87143L14.6429 35L22.9 11H26.7857L36.5 41H32.6143L24.3571 17L16.5857 41H12.2143Z" fill="white"/>
<path d="M56.693 33.475H40.697L37.386 41H32.957L46.588 10.9H50.845L64.519 41H60.004L56.693 33.475ZM55.188 30.035L48.695 15.286L42.202 30.035H55.188Z" fill="white"/>
<path d="M80.5 11V41" stroke="white"/>
</svg>
