<?xml version="1.0" encoding="UTF-8"?>
<svg width="2121" height="1066" viewBox="0 0 2121 1066" fill="none" xmlns="http://www.w3.org/2000/svg">
<g opacity="0.2" filter="url(#filter0_d)">
<path d="M303.574 526.4C255.474 526.4 212.14 516.433 173.574 496.5C135.007 476.133 104.674 447.967 82.5736 412C60.9069 375.6 50.0736 334.433 50.0736 288.5C50.0736 242.567 60.9069 201.617 82.5736 165.65C104.674 129.25 135.007 101.083 173.574 81.15C212.14 60.7833 255.474 50.6 303.574 50.6C347.774 50.6 387.207 58.4 421.874 74C456.54 89.6 485.14 112.133 507.674 141.6L410.824 228.05C382.657 192.517 349.507 174.75 311.374 174.75C279.307 174.75 253.524 185.15 234.024 205.95C214.524 226.317 204.774 253.833 204.774 288.5C204.774 323.167 214.524 350.9 234.024 371.7C253.524 392.067 279.307 402.25 311.374 402.25C349.507 402.25 382.657 384.483 410.824 348.95L507.674 435.4C485.14 464.867 456.54 487.4 421.874 503C387.207 518.6 347.774 526.4 303.574 526.4Z" fill="#232838"/>
<path d="M779.465 401.6H737.865V516H584.465V61H803.515C845.548 61 882.165 67.9333 913.365 81.8C944.565 95.6666 968.615 115.6 985.515 141.6C1002.42 167.6 1010.87 197.933 1010.87 232.6C1010.87 265.1 1003.5 293.483 988.765 317.75C974.032 342.017 952.798 361.3 925.065 375.6L1020.62 516H856.815L779.465 401.6ZM856.165 232.6C856.165 215.7 850.965 202.7 840.565 193.6C830.165 184.067 814.565 179.3 793.765 179.3H737.865V285.9H793.765C814.565 285.9 830.165 281.35 840.565 272.25C850.965 262.717 856.165 249.5 856.165 232.6Z" fill="#232838"/>
<path d="M1479.59 400.3V516H1101.29V61H1471.14V176.7H1252.09V230H1444.49V340.5H1252.09V400.3H1479.59Z" fill="#232838"/>
<path d="M1881.19 436.7H1708.29L1677.74 516H1521.74L1720.64 61H1871.44L2070.34 516H1911.74L1881.19 436.7ZM1838.94 326.2L1794.74 211.8L1750.54 326.2H1838.94Z" fill="#232838"/>
<path d="M335.921 679.95H202.671V561H622.571V679.95H489.321V1016H335.921V679.95Z" fill="#232838"/>
<path d="M694.914 561H848.314V1016H694.914V561Z" fill="#232838"/>
<path d="M1440.86 561L1248.46 1016H1097.66L905.26 561H1070.36L1178.91 826.85L1290.06 561H1440.86Z" fill="#232838"/>
<path d="M1866.93 900.3V1016H1488.63V561H1858.48V676.7H1639.43V730H1831.83V840.5H1639.43V900.3H1866.93Z" fill="#232838"/>
</g>
<defs>
<filter id="filter0_d" x="0.0736084" y="0.599976" width="2120.27" height="1065.4" filterUnits="userSpaceOnUse" color-interpolation-filters="sRGB">
<feFlood flood-opacity="0" result="BackgroundImageFix"/>
<feColorMatrix in="SourceAlpha" type="matrix" values="0 0 0 0 0 0 0 0 0 0 0 0 0 0 0 0 0 0 127 0"/>
<feOffset/>
<feGaussianBlur stdDeviation="25"/>
<feColorMatrix type="matrix" values="0 0 0 0 0.0196078 0 0 0 0 0.027451 0 0 0 0 0.0588235 0 0 0 0.5 0"/>
<feBlend mode="normal" in2="BackgroundImageFix" result="effect1_dropShadow"/>
<feBlend mode="normal" in="SourceGraphic" in2="effect1_dropShadow" result="shape"/>
</filter>
</defs>
</svg>
